<?xml version="1.0" encoding="UTF-8" standalone="no"?>
<!DOCTYPE svg PUBLIC "-//W3C//DTD SVG 1.1//EN" "http://www.w3.org/Graphics/SVG/1.1/DTD/svg11.dtd">
<svg width="100%" height="100%" viewBox="0 0 512 172" version="1.1" xmlns="http://www.w3.org/2000/svg" xmlns:xlink="http://www.w3.org/1999/xlink" xml:space="preserve" style="fill-rule:evenodd;clip-rule:evenodd;stroke-linejoin:round;stroke-miterlimit:1.41421;">
    <g transform="matrix(-0.501754,-0.501754,0.668725,-0.668725,405.612,139.399)">
        <path d="M145.026,42.388L145.026,95.258L74.562,95.258L145.026,42.388Z" style="fill:rgb(51,102,204);"/>
    </g>
    <g transform="matrix(0.802806,0.802806,-1.06996,1.06996,117.305,-49.2803)">
        <path d="M145.026,42.388L145.026,95.258L74.562,95.258L145.026,42.388Z" style="fill:rgb(51,204,51);"/>
    </g>
    <g transform="matrix(3.8308,0,0,3.8308,-131.854,-276.331)">
        <path d="M41.63,94.297L41.63,89.998L50.293,89.998L50.293,86.017L41.63,86.017L41.63,81.749L52.522,81.749L52.522,77.514L36.153,77.514L36.153,98.533L52.936,98.533L52.936,94.297L41.63,94.297Z" style="fill:rgb(51,102,204);fill-rule:nonzero;"/>
        <path d="M70.428,85.752C68.599,85.752 67.045,86.629 66.243,88.283C65.617,86.604 64.113,85.752 62.259,85.752C60.354,85.752 58.851,86.654 58.049,88.408L57.923,86.003L54.114,86.003L54.114,98.533L58.374,98.533L58.374,91.917C58.374,89.862 59.402,89.01 60.58,89.01C61.582,89.01 62.284,89.586 62.284,91.165L62.284,98.533L66.544,98.533L66.544,91.842C66.544,89.962 67.471,89.01 68.749,89.01C69.777,89.01 70.453,89.586 70.453,91.165L70.453,98.533L74.664,98.533L74.714,90.188C74.739,87.256 72.884,85.752 70.428,85.752Z" style="fill:rgb(51,102,204);fill-rule:nonzero;"/>
        <path d="M82.658,85.752C78.473,85.752 76.042,88.158 76.042,92.268C76.042,96.377 78.473,98.783 82.658,98.783C86.843,98.783 89.274,96.377 89.274,92.268C89.274,88.158 86.843,85.752 82.658,85.752ZM82.658,88.784C84.236,88.784 85.013,89.812 85.013,92.268C85.013,94.724 84.236,95.751 82.658,95.751C81.079,95.751 80.302,94.724 80.302,92.268C80.302,89.812 81.079,88.784 82.658,88.784Z" style="fill:rgb(51,102,204);fill-rule:nonzero;"/>
        <path d="M92.782,80.464C91.078,80.464 90.326,81.141 90.326,82.519C90.326,83.898 91.078,84.549 92.782,84.549C94.511,84.549 95.288,83.898 95.288,82.519C95.288,81.141 94.511,80.464 92.782,80.464ZM94.937,86.003L90.677,86.003L90.677,98.858C90.677,100.337 90.025,100.863 88.973,100.863C88.321,100.863 87.745,100.663 87.394,100.362L86.793,103.119C87.645,103.645 88.722,103.921 90.075,103.921C93.083,103.921 94.937,102.617 94.937,99.234L94.937,86.003Z" style="fill:rgb(51,102,204);fill-rule:nonzero;"/>
        <path d="M99.022,84.549C100.751,84.549 101.503,83.923 101.503,82.519C101.503,81.091 100.751,80.464 99.022,80.464C97.293,80.464 96.541,81.091 96.541,82.519C96.541,83.923 97.293,84.549 99.022,84.549ZM101.152,86.003L96.892,86.003L96.892,98.533L101.152,98.533L101.152,86.003Z" style="fill:rgb(51,102,204);fill-rule:nonzero;"/>
    </g>
    <g transform="matrix(3.8308,0,0,3.8308,-129.854,-276.331)">
        <path d="M117.081,98.533L123.132,98.533L117.813,90.284C120.457,89.329 121.89,87.259 121.89,84.201C121.89,79.87 119.023,77.514 113.96,77.514L103.928,77.514L103.928,98.533L109.31,98.533L109.31,90.857L112.59,90.857L117.081,98.533ZM109.31,81.654L113.036,81.654C115.361,81.654 116.38,82.45 116.38,84.297C116.38,86.176 115.361,86.972 113.036,86.972L109.31,86.972L109.31,81.654Z" style="fill:rgb(51,204,51);fill-rule:nonzero;"/>
        <path d="M135.841,96.102C135.239,96.102 134.939,95.776 134.939,95.124L134.939,90.564C134.939,87.331 132.809,85.752 128.949,85.752C125.541,85.752 123.586,87.231 123.16,89.611L126.619,90.614C126.869,89.16 127.746,88.684 128.949,88.684C130.077,88.684 130.729,89.411 130.729,90.538L130.729,90.99L127.897,91.541C124.338,92.243 123.01,93.571 123.01,95.651C123.01,97.681 124.413,98.783 126.894,98.783C129.2,98.783 130.653,98.056 131.355,96.854C131.731,98.207 132.909,98.783 134.588,98.783C135.214,98.783 135.791,98.658 136.292,98.382L136.618,96.002C136.392,96.077 136.142,96.102 135.841,96.102ZM128.448,96.027C127.671,96.027 127.22,95.651 127.22,94.949C127.22,94.247 127.646,93.897 128.699,93.646L130.729,93.17L130.729,94.247C130.729,95.4 129.501,96.027 128.448,96.027Z" style="fill:rgb(51,204,51);fill-rule:nonzero;"/>
        <path d="M145.464,85.752C143.484,85.752 141.955,86.654 141.179,88.433L141.053,86.003L137.244,86.003L137.244,98.533L141.504,98.533L141.504,91.917C141.504,89.837 142.532,89.01 143.76,89.01C144.812,89.01 145.539,89.586 145.539,91.365L145.539,98.533L149.799,98.533L149.799,90.188C149.799,87.281 148.045,85.752 145.464,85.752Z" style="fill:rgb(51,204,51);fill-rule:nonzero;"/>
        <path d="M161.051,98.533L165.762,98.533L160.876,90.914L165.487,86.003L160.776,86.003L155.989,91.265L155.989,80.69L151.729,80.69L151.729,98.533L155.989,98.533L155.989,95.651L157.994,93.395L161.051,98.533Z" style="fill:rgb(51,204,51);fill-rule:nonzero;"/>
    </g>
</svg>
