<?xml version="1.0" encoding="UTF-8" standalone="no"?><!DOCTYPE svg PUBLIC "-//W3C//DTD SVG 1.1//EN" "http://www.w3.org/Graphics/SVG/1.1/DTD/svg11.dtd"><svg width="100%" height="100%" viewBox="0 0 72 72" version="1.1" xmlns="http://www.w3.org/2000/svg" xmlns:xlink="http://www.w3.org/1999/xlink" xml:space="preserve" style="fill-rule:evenodd;clip-rule:evenodd;stroke-linejoin:round;stroke-miterlimit:1.41421;"><rect id="Hate-Placeholder" x="0" y="0" width="72" height="72" style="fill:none;"/><clipPath id="_clip1"><rect x="0" y="0" width="72" height="72"/></clipPath><g clip-path="url(#_clip1)"><path d="M21.804,28.08l0,6.504l-6.984,0l0,-6.504l-3.312,0l0,15.84l3.312,0l0,-6.672l6.984,0l0,6.672l3.312,0l0,-15.84l-3.312,0Z" style="fill-opacity:0.329796;fill-rule:nonzero;"/><path d="M38.772,41.928c-0.624,0 -0.888,-0.288 -0.888,-0.912l0,-4.92c0,-2.976 -2.112,-4.416 -5.448,-4.416c-2.928,0 -4.728,1.296 -5.232,3.336l2.616,1.104c0.36,-1.512 1.368,-2.04 2.76,-2.04c1.296,0 2.04,0.816 2.04,2.088l0,0.576l-2.88,0.552c-3.216,0.6 -4.68,1.92 -4.68,3.792c0,2.016 1.44,3.072 3.72,3.072c2.016,0 3.528,-0.624 4.248,-1.8c0.336,1.296 1.32,1.8 2.76,1.8c0.6,0 1.128,-0.12 1.56,-0.336l0.24,-1.992c-0.24,0.072 -0.528,0.096 -0.816,0.096Zm-6.96,0c-0.864,0 -1.368,-0.408 -1.368,-1.176c0,-0.792 0.552,-1.176 1.608,-1.416l2.568,-0.576l0,1.248c0,1.272 -1.56,1.92 -2.808,1.92Z" style="fill-opacity:0.329796;fill-rule:nonzero;"/><path d="M47.82,40.992c-0.504,0.432 -1.056,0.672 -1.848,0.672c-1.032,0 -1.656,-0.504 -1.656,-1.656l0,-5.64l3.888,0l0,-2.448l-3.888,0l0,-3.672l-3.288,0.912l0,2.76l-2.184,0l0,2.448l2.184,0l0,6.168c0,2.64 1.632,3.624 4.008,3.624c1.272,0 2.52,-0.36 3.288,-0.984l-0.504,-2.184Z" style="fill-opacity:0.329796;fill-rule:nonzero;"/><path d="M60.588,37.872c0,-3.936 -2.04,-6.192 -5.784,-6.192c-3.864,0 -6.048,2.304 -6.048,6.24c0,3.936 2.256,6.24 6.24,6.24c2.712,0 4.56,-1.032 5.328,-2.952l-2.688,-0.984c-0.336,0.96 -1.248,1.488 -2.64,1.488c-1.608,0 -2.664,-0.816 -3,-2.544l8.496,0c0.048,-0.312 0.096,-0.96 0.096,-1.296Zm-5.808,-3.768c1.512,0 2.52,0.96 2.784,2.76l-5.592,0c0.264,-1.824 1.224,-2.76 2.808,-2.76Z" style="fill-opacity:0.329796;fill-rule:nonzero;"/><g><g opacity="0.329796"><path d="M3.576,72l-7.2,0l0,0l7.2,0l0,0Zm0,-3.6l-7.2,0l0,-3.6l7.2,0l0,3.6Zm0,-7.2l-7.2,0l0,-3.6l7.2,0l0,3.6Zm0,-7.2l-7.2,0l0,-3.6l7.2,0l0,3.6Zm0,-7.2l-7.2,0l0,-3.6l7.2,0l0,3.6Zm0,-7.2l-7.2,0l0,-3.6l7.2,0l0,3.6Zm0,-7.2l-7.2,0l0,-3.6l7.2,0l0,3.6Zm0,-7.2l-7.2,0l0,-3.6l7.2,0l0,3.6Zm0,-7.2l-7.2,0l0,-3.6l7.2,0l0,3.6Zm0,-7.2l-7.2,0l0,-3.6l7.2,0l0,3.6Zm0,-7.2l-7.2,0l0,-3.6l7.2,0l0,3.6Z"/><path d="M75.576,72.12l-7.2,0l0,-3.6l7.2,0l0,3.6Zm0,-7.2l-7.2,0l0,-3.6l7.2,0l0,3.6Zm0,-7.2l-7.2,0l0,-3.6l7.2,0l0,3.6Zm0,-7.2l-7.2,0l0,-3.6l7.2,0l0,3.6Zm0,-7.2l-7.2,0l0,-3.6l7.2,0l0,3.6Zm0,-7.2l-7.2,0l0,-3.6l7.2,0l0,3.6Zm0,-7.2l-7.2,0l0,-3.6l7.2,0l0,3.6Zm0,-7.2l-7.2,0l0,-3.6l7.2,0l0,3.6Zm0,-7.2l-7.2,0l0,-3.6l7.2,0l0,3.6Zm0,-7.2l-7.2,0l0,-3.6l7.2,0l0,3.6Zm0,-7.2l-7.2,0l0,0l7.2,0l0,0Z"/><path d="M3.624,3.72l-3.6,0l0,-7.2l3.6,0l0,7.2Zm7.2,0l-3.6,0l0,-7.2l3.6,0l0,7.2Zm7.2,0l-3.6,0l0,-7.2l3.6,0l0,7.2Zm7.2,0l-3.6,0l0,-7.2l3.6,0l0,7.2Zm7.2,0l-3.6,0l0,-7.2l3.6,0l0,7.2Zm7.2,0l-3.6,0l0,-7.2l3.6,0l0,7.2Zm7.2,0l-3.6,0l0,-7.2l3.6,0l0,7.2Zm7.2,0l-3.6,0l0,-7.2l3.6,0l0,7.2Zm7.2,0l-3.6,0l0,-7.2l3.6,0l0,7.2Zm7.2,0l-3.6,0l0,-7.2l3.6,0l0,7.2Zm3.6,0l0,0l0,-7.2l0,0l0,7.2Z"/><path d="M72.024,75.6l-3.6,0l0,-7.2l3.6,0l0,7.2Zm-7.2,0l-3.6,0l0,-7.2l3.6,0l0,7.2Zm-7.2,0l-3.6,0l0,-7.2l3.6,0l0,7.2Zm-7.2,0l-3.6,0l0,-7.2l3.6,0l0,7.2Zm-7.2,0l-3.6,0l0,-7.2l3.6,0l0,7.2Zm-7.2,0l-3.6,0l0,-7.2l3.6,0l0,7.2Zm-7.2,0l-3.6,0l0,-7.2l3.6,0l0,7.2Zm-7.2,0l-3.6,0l0,-7.2l3.6,0l0,7.2Zm-7.2,0l-3.6,0l0,-7.2l3.6,0l0,7.2Zm-7.2,0l-3.6,0l0,-7.2l3.6,0l0,7.2Zm-7.2,0l0,0l0,-7.2l0,0l0,7.2Z"/></g></g></g></svg>