<?xml version="1.0" encoding="UTF-8" standalone="no"?><!DOCTYPE svg PUBLIC "-//W3C//DTD SVG 1.1//EN" "http://www.w3.org/Graphics/SVG/1.1/DTD/svg11.dtd"><svg width="100%" height="100%" viewBox="0 0 72 72" version="1.1" xmlns="http://www.w3.org/2000/svg" xmlns:xlink="http://www.w3.org/1999/xlink" xml:space="preserve" style="fill-rule:evenodd;clip-rule:evenodd;stroke-linejoin:round;stroke-miterlimit:1.41421;"><rect id="Like-Placeholder" x="0" y="0" width="72" height="72" style="fill:none;"/><clipPath id="_clip1"><rect x="0" y="0" width="72" height="72"/></clipPath><g clip-path="url(#_clip1)"><path d="M17.904,41.256l0,-13.176l-3.312,0l0,15.84l11.664,0l0,-2.664l-8.352,0Z" style="fill-opacity:0.329114;fill-rule:nonzero;"/><path d="M29.328,30.192c1.368,0 2.04,-0.576 2.04,-1.752c0,-1.176 -0.672,-1.776 -2.04,-1.776c-1.368,0 -2.04,0.6 -2.04,1.776c0,1.176 0.672,1.752 2.04,1.752Zm1.632,1.728l-3.288,0l0,12l3.288,0l0,-12Z" style="fill-opacity:0.329114;fill-rule:nonzero;"/><path d="M42.216,43.92l3.72,0l-4.8,-7.296l4.512,-4.704l-3.72,0l-5.208,5.496l0,-10.752l-3.288,0l0,17.256l3.288,0l0,-2.976l2.184,-2.328l3.312,5.304Z" style="fill-opacity:0.329114;fill-rule:nonzero;"/><path d="M57.504,37.872c0,-3.936 -2.04,-6.192 -5.784,-6.192c-3.864,0 -6.048,2.304 -6.048,6.24c0,3.936 2.256,6.24 6.24,6.24c2.712,0 4.56,-1.032 5.328,-2.952l-2.688,-0.984c-0.336,0.96 -1.248,1.488 -2.64,1.488c-1.608,0 -2.664,-0.816 -3,-2.544l8.496,0c0.048,-0.312 0.096,-0.96 0.096,-1.296Zm-5.808,-3.768c1.512,0 2.52,0.96 2.784,2.76l-5.592,0c0.264,-1.824 1.224,-2.76 2.808,-2.76Z" style="fill-opacity:0.329114;fill-rule:nonzero;"/><g><g opacity="0.331631"><path d="M3.6,72l-7.2,0l0,0l7.2,0l0,0Zm0,-3.6l-7.2,0l0,-3.6l7.2,0l0,3.6Zm0,-7.2l-7.2,0l0,-3.6l7.2,0l0,3.6Zm0,-7.2l-7.2,0l0,-3.6l7.2,0l0,3.6Zm0,-7.2l-7.2,0l0,-3.6l7.2,0l0,3.6Zm0,-7.2l-7.2,0l0,-3.6l7.2,0l0,3.6Zm0,-7.2l-7.2,0l0,-3.6l7.2,0l0,3.6Zm0,-7.2l-7.2,0l0,-3.6l7.2,0l0,3.6Zm0,-7.2l-7.2,0l0,-3.6l7.2,0l0,3.6Zm0,-7.2l-7.2,0l0,-3.6l7.2,0l0,3.6Zm0,-7.2l-7.2,0l0,-3.6l7.2,0l0,3.6Z"/><path d="M75.6,72.12l-7.2,0l0,-3.6l7.2,0l0,3.6Zm0,-7.2l-7.2,0l0,-3.6l7.2,0l0,3.6Zm0,-7.2l-7.2,0l0,-3.6l7.2,0l0,3.6Zm0,-7.2l-7.2,0l0,-3.6l7.2,0l0,3.6Zm0,-7.2l-7.2,0l0,-3.6l7.2,0l0,3.6Zm0,-7.2l-7.2,0l0,-3.6l7.2,0l0,3.6Zm0,-7.2l-7.2,0l0,-3.6l7.2,0l0,3.6Zm0,-7.2l-7.2,0l0,-3.6l7.2,0l0,3.6Zm0,-7.2l-7.2,0l0,-3.6l7.2,0l0,3.6Zm0,-7.2l-7.2,0l0,-3.6l7.2,0l0,3.6Zm0,-7.2l-7.2,0l0,0l7.2,0l0,0Z"/><path d="M3.648,3.72l-3.6,0l0,-7.2l3.6,0l0,7.2Zm7.2,0l-3.6,0l0,-7.2l3.6,0l0,7.2Zm7.2,0l-3.6,0l0,-7.2l3.6,0l0,7.2Zm7.2,0l-3.6,0l0,-7.2l3.6,0l0,7.2Zm7.2,0l-3.6,0l0,-7.2l3.6,0l0,7.2Zm7.2,0l-3.6,0l0,-7.2l3.6,0l0,7.2Zm7.2,0l-3.6,0l0,-7.2l3.6,0l0,7.2Zm7.2,0l-3.6,0l0,-7.2l3.6,0l0,7.2Zm7.2,0l-3.6,0l0,-7.2l3.6,0l0,7.2Zm7.2,0l-3.6,0l0,-7.2l3.6,0l0,7.2Zm3.6,0l0,0l0,-7.2l0,0l0,7.2Z"/><path d="M72.048,75.6l-3.6,0l0,-7.2l3.6,0l0,7.2Zm-7.2,0l-3.6,0l0,-7.2l3.6,0l0,7.2Zm-7.2,0l-3.6,0l0,-7.2l3.6,0l0,7.2Zm-7.2,0l-3.6,0l0,-7.2l3.6,0l0,7.2Zm-7.2,0l-3.6,0l0,-7.2l3.6,0l0,7.2Zm-7.2,0l-3.6,0l0,-7.2l3.6,0l0,7.2Zm-7.2,0l-3.6,0l0,-7.2l3.6,0l0,7.2Zm-7.2,0l-3.6,0l0,-7.2l3.6,0l0,7.2Zm-7.2,0l-3.6,0l0,-7.2l3.6,0l0,7.2Zm-7.2,0l-3.6,0l0,-7.2l3.6,0l0,7.2Zm-7.2,0l0,0l0,-7.2l0,0l0,7.2Z"/></g></g></g></svg>